# https://github.com/mikedh/trimesh
mtllib material.mtl

o GLTF_8
usemtl material_0
v 0.31874999 0.06250000 0.35624999
v 0.31874999 0.00000000 0.35624999
v 0.31874999 0.06250000 -0.37500000
v 0.31874999 0.00000000 0.35624999
v 0.31874999 0.00000000 -0.37500000
v 0.31874999 0.06250000 -0.37500000
v -0.25000000 0.06250000 -0.37500000
v -0.25000000 0.00000000 -0.37500000
v -0.25000000 0.06250000 0.35624999
v -0.25000000 0.00000000 -0.37500000
v -0.25000000 0.00000000 0.35624999
v -0.25000000 0.06250000 0.35624999
v -0.25000000 0.06250000 -0.37500000
v -0.25000000 0.06250000 0.35624999
v 0.31874999 0.06250000 -0.37500000
v -0.25000000 0.06250000 0.35624999
v 0.31874999 0.06250000 0.35624999
v 0.31874999 0.06250000 -0.37500000
v -0.25000000 0.00000000 0.35624999
v -0.25000000 0.00000000 -0.37500000
v 0.31874999 0.00000000 0.35624999
v -0.25000000 0.00000000 -0.37500000
v 0.31874999 0.00000000 -0.37500000
v 0.31874999 0.00000000 0.35624999
v -0.25000000 0.06250000 0.35624999
v -0.25000000 0.00000000 0.35624999
v 0.31874999 0.06250000 0.35624999
v -0.25000000 0.00000000 0.35624999
v 0.31874999 0.00000000 0.35624999
v 0.31874999 0.06250000 0.35624999
v 0.31874999 0.06250000 -0.37500000
v 0.31874999 0.00000000 -0.37500000
v -0.25000000 0.06250000 -0.37500000
v 0.31874999 0.00000000 -0.37500000
v -0.25000000 0.00000000 -0.37500000
v -0.25000000 0.06250000 -0.37500000
vt 0.00000000 0.00000000
vt 0.00000000 0.06250000
vt 0.73124999 0.00000000
vt 0.00000000 0.06250000
vt 0.73124999 0.06250000
vt 0.73124999 0.00000000
vt 0.00000000 0.00000000
vt 0.00000000 0.06250000
vt 0.73124999 0.00000000
vt 0.00000000 0.06250000
vt 0.73124999 0.06250000
vt 0.73124999 0.00000000
vt 0.21875000 0.65625000
vt 0.21875000 0.68750000
vt 0.28125000 0.65625000
vt 0.21875000 0.68750000
vt 0.28125000 0.68750000
vt 0.28125000 0.65625000
vt 0.50000000 0.18750000
vt 0.50000000 0.81250000
vt 0.93750000 0.18750000
vt 0.50000000 0.81250000
vt 0.93750000 0.81250000
vt 0.93750000 0.18750000
vt 0.00000000 0.00000000
vt 0.00000000 0.06250000
vt 0.43750000 0.00000000
vt 0.00000000 0.06250000
vt 0.43750000 0.06250000
vt 0.43750000 0.00000000
vt 0.00000000 0.00000000
vt 0.00000000 0.09375000
vt 0.43750000 0.00000000
vt 0.00000000 0.09375000
vt 0.43750000 0.09375000
vt 0.43750000 0.00000000
f 1/1 2/2 3/3
f 4/4 5/5 6/6

o GLTF_9
usemtl texture.png
v 0.31874999 0.06250000 0.35624999
v 0.31874999 0.00000000 0.35624999
v 0.31874999 0.06250000 -0.37500000
v 0.31874999 0.00000000 0.35624999
v 0.31874999 0.00000000 -0.37500000
v 0.31874999 0.06250000 -0.37500000
v -0.25000000 0.06250000 -0.37500000
v -0.25000000 0.00000000 -0.37500000
v -0.25000000 0.06250000 0.35624999
v -0.25000000 0.00000000 -0.37500000
v -0.25000000 0.00000000 0.35624999
v -0.25000000 0.06250000 0.35624999
v -0.25000000 0.06250000 -0.37500000
v -0.25000000 0.06250000 0.35624999
v 0.31874999 0.06250000 -0.37500000
v -0.25000000 0.06250000 0.35624999
v 0.31874999 0.06250000 0.35624999
v 0.31874999 0.06250000 -0.37500000
v -0.25000000 0.00000000 0.35624999
v -0.25000000 0.00000000 -0.37500000
v 0.31874999 0.00000000 0.35624999
v -0.25000000 0.00000000 -0.37500000
v 0.31874999 0.00000000 -0.37500000
v 0.31874999 0.00000000 0.35624999
v -0.25000000 0.06250000 0.35624999
v -0.25000000 0.00000000 0.35624999
v 0.31874999 0.06250000 0.35624999
v -0.25000000 0.00000000 0.35624999
v 0.31874999 0.00000000 0.35624999
v 0.31874999 0.06250000 0.35624999
v 0.31874999 0.06250000 -0.37500000
v 0.31874999 0.00000000 -0.37500000
v -0.25000000 0.06250000 -0.37500000
v 0.31874999 0.00000000 -0.37500000
v -0.25000000 0.00000000 -0.37500000
v -0.25000000 0.06250000 -0.37500000
vt 0.00000000 0.00000000
vt 0.00000000 0.06250000
vt 0.73124999 0.00000000
vt 0.00000000 0.06250000
vt 0.73124999 0.06250000
vt 0.73124999 0.00000000
vt 0.00000000 0.00000000
vt 0.00000000 0.06250000
vt 0.73124999 0.00000000
vt 0.00000000 0.06250000
vt 0.73124999 0.06250000
vt 0.73124999 0.00000000
vt 0.21875000 0.65625000
vt 0.21875000 0.68750000
vt 0.28125000 0.65625000
vt 0.21875000 0.68750000
vt 0.28125000 0.68750000
vt 0.28125000 0.65625000
vt 0.50000000 0.18750000
vt 0.50000000 0.81250000
vt 0.93750000 0.18750000
vt 0.50000000 0.81250000
vt 0.93750000 0.81250000
vt 0.93750000 0.18750000
vt 0.00000000 0.00000000
vt 0.00000000 0.06250000
vt 0.43750000 0.00000000
vt 0.00000000 0.06250000
vt 0.43750000 0.06250000
vt 0.43750000 0.00000000
vt 0.00000000 0.00000000
vt 0.00000000 0.09375000
vt 0.43750000 0.00000000
vt 0.00000000 0.09375000
vt 0.43750000 0.09375000
vt 0.43750000 0.00000000
f 43/43 44/44 45/45
f 46/46 47/47 48/48

o GLTF_10
usemtl texture.png
v 0.31874999 0.06250000 0.35624999
v 0.31874999 0.00000000 0.35624999
v 0.31874999 0.06250000 -0.37500000
v 0.31874999 0.00000000 0.35624999
v 0.31874999 0.00000000 -0.37500000
v 0.31874999 0.06250000 -0.37500000
v -0.25000000 0.06250000 -0.37500000
v -0.25000000 0.00000000 -0.37500000
v -0.25000000 0.06250000 0.35624999
v -0.25000000 0.00000000 -0.37500000
v -0.25000000 0.00000000 0.35624999
v -0.25000000 0.06250000 0.35624999
v -0.25000000 0.06250000 -0.37500000
v -0.25000000 0.06250000 0.35624999
v 0.31874999 0.06250000 -0.37500000
v -0.25000000 0.06250000 0.35624999
v 0.31874999 0.06250000 0.35624999
v 0.31874999 0.06250000 -0.37500000
v -0.25000000 0.00000000 0.35624999
v -0.25000000 0.00000000 -0.37500000
v 0.31874999 0.00000000 0.35624999
v -0.25000000 0.00000000 -0.37500000
v 0.31874999 0.00000000 -0.37500000
v 0.31874999 0.00000000 0.35624999
v -0.25000000 0.06250000 0.35624999
v -0.25000000 0.00000000 0.35624999
v 0.31874999 0.06250000 0.35624999
v -0.25000000 0.00000000 0.35624999
v 0.31874999 0.00000000 0.35624999
v 0.31874999 0.06250000 0.35624999
v 0.31874999 0.06250000 -0.37500000
v 0.31874999 0.00000000 -0.37500000
v -0.25000000 0.06250000 -0.37500000
v 0.31874999 0.00000000 -0.37500000
v -0.25000000 0.00000000 -0.37500000
v -0.25000000 0.06250000 -0.37500000
vt 0.00000000 0.00000000
vt 0.00000000 0.06250000
vt 0.73124999 0.00000000
vt 0.00000000 0.06250000
vt 0.73124999 0.06250000
vt 0.73124999 0.00000000
vt 0.00000000 0.00000000
vt 0.00000000 0.06250000
vt 0.73124999 0.00000000
vt 0.00000000 0.06250000
vt 0.73124999 0.06250000
vt 0.73124999 0.00000000
vt 0.21875000 0.65625000
vt 0.21875000 0.68750000
vt 0.28125000 0.65625000
vt 0.21875000 0.68750000
vt 0.28125000 0.68750000
vt 0.28125000 0.65625000
vt 0.50000000 0.18750000
vt 0.50000000 0.81250000
vt 0.93750000 0.18750000
vt 0.50000000 0.81250000
vt 0.93750000 0.81250000
vt 0.93750000 0.18750000
vt 0.00000000 0.00000000
vt 0.00000000 0.06250000
vt 0.43750000 0.00000000
vt 0.00000000 0.06250000
vt 0.43750000 0.06250000
vt 0.43750000 0.00000000
vt 0.00000000 0.00000000
vt 0.00000000 0.09375000
vt 0.43750000 0.00000000
vt 0.00000000 0.09375000
vt 0.43750000 0.09375000
vt 0.43750000 0.00000000
f 85/85 86/86 87/87
f 88/88 89/89 90/90

o GLTF_11
usemtl texture.png
v 0.31874999 0.06250000 0.35624999
v 0.31874999 0.00000000 0.35624999
v 0.31874999 0.06250000 -0.37500000
v 0.31874999 0.00000000 0.35624999
v 0.31874999 0.00000000 -0.37500000
v 0.31874999 0.06250000 -0.37500000
v -0.25000000 0.06250000 -0.37500000
v -0.25000000 0.00000000 -0.37500000
v -0.25000000 0.06250000 0.35624999
v -0.25000000 0.00000000 -0.37500000
v -0.25000000 0.00000000 0.35624999
v -0.25000000 0.06250000 0.35624999
v -0.25000000 0.06250000 -0.37500000
v -0.25000000 0.06250000 0.35624999
v 0.31874999 0.06250000 -0.37500000
v -0.25000000 0.06250000 0.35624999
v 0.31874999 0.06250000 0.35624999
v 0.31874999 0.06250000 -0.37500000
v -0.25000000 0.00000000 0.35624999
v -0.25000000 0.00000000 -0.37500000
v 0.31874999 0.00000000 0.35624999
v -0.25000000 0.00000000 -0.37500000
v 0.31874999 0.00000000 -0.37500000
v 0.31874999 0.00000000 0.35624999
v -0.25000000 0.06250000 0.35624999
v -0.25000000 0.00000000 0.35624999
v 0.31874999 0.06250000 0.35624999
v -0.25000000 0.00000000 0.35624999
v 0.31874999 0.00000000 0.35624999
v 0.31874999 0.06250000 0.35624999
v 0.31874999 0.06250000 -0.37500000
v 0.31874999 0.00000000 -0.37500000
v -0.25000000 0.06250000 -0.37500000
v 0.31874999 0.00000000 -0.37500000
v -0.25000000 0.00000000 -0.37500000
v -0.25000000 0.06250000 -0.37500000
vt 0.00000000 0.00000000
vt 0.00000000 0.06250000
vt 0.73124999 0.00000000
vt 0.00000000 0.06250000
vt 0.73124999 0.06250000
vt 0.73124999 0.00000000
vt 0.00000000 0.00000000
vt 0.00000000 0.06250000
vt 0.73124999 0.00000000
vt 0.00000000 0.06250000
vt 0.73124999 0.06250000
vt 0.73124999 0.00000000
vt 0.21875000 0.65625000
vt 0.21875000 0.68750000
vt 0.28125000 0.65625000
vt 0.21875000 0.68750000
vt 0.28125000 0.68750000
vt 0.28125000 0.65625000
vt 0.50000000 0.18750000
vt 0.50000000 0.81250000
vt 0.93750000 0.18750000
vt 0.50000000 0.81250000
vt 0.93750000 0.81250000
vt 0.93750000 0.18750000
vt 0.00000000 0.00000000
vt 0.00000000 0.06250000
vt 0.43750000 0.00000000
vt 0.00000000 0.06250000
vt 0.43750000 0.06250000
vt 0.43750000 0.00000000
vt 0.00000000 0.00000000
vt 0.00000000 0.09375000
vt 0.43750000 0.00000000
vt 0.00000000 0.09375000
vt 0.43750000 0.09375000
vt 0.43750000 0.00000000
f 127/127 128/128 129/129
f 130/130 131/131 132/132

o GLTF_12
usemtl texture.png
v 0.31874999 0.06250000 0.35624999
v 0.31874999 0.00000000 0.35624999
v 0.31874999 0.06250000 -0.37500000
v 0.31874999 0.00000000 0.35624999
v 0.31874999 0.00000000 -0.37500000
v 0.31874999 0.06250000 -0.37500000
v -0.25000000 0.06250000 -0.37500000
v -0.25000000 0.00000000 -0.37500000
v -0.25000000 0.06250000 0.35624999
v -0.25000000 0.00000000 -0.37500000
v -0.25000000 0.00000000 0.35624999
v -0.25000000 0.06250000 0.35624999
v -0.25000000 0.06250000 -0.37500000
v -0.25000000 0.06250000 0.35624999
v 0.31874999 0.06250000 -0.37500000
v -0.25000000 0.06250000 0.35624999
v 0.31874999 0.06250000 0.35624999
v 0.31874999 0.06250000 -0.37500000
v -0.25000000 0.00000000 0.35624999
v -0.25000000 0.00000000 -0.37500000
v 0.31874999 0.00000000 0.35624999
v -0.25000000 0.00000000 -0.37500000
v 0.31874999 0.00000000 -0.37500000
v 0.31874999 0.00000000 0.35624999
v -0.25000000 0.06250000 0.35624999
v -0.25000000 0.00000000 0.35624999
v 0.31874999 0.06250000 0.35624999
v -0.25000000 0.00000000 0.35624999
v 0.31874999 0.00000000 0.35624999
v 0.31874999 0.06250000 0.35624999
v 0.31874999 0.06250000 -0.37500000
v 0.31874999 0.00000000 -0.37500000
v -0.25000000 0.06250000 -0.37500000
v 0.31874999 0.00000000 -0.37500000
v -0.25000000 0.00000000 -0.37500000
v -0.25000000 0.06250000 -0.37500000
vt 0.00000000 0.00000000
vt 0.00000000 0.06250000
vt 0.73124999 0.00000000
vt 0.00000000 0.06250000
vt 0.73124999 0.06250000
vt 0.73124999 0.00000000
vt 0.00000000 0.00000000
vt 0.00000000 0.06250000
vt 0.73124999 0.00000000
vt 0.00000000 0.06250000
vt 0.73124999 0.06250000
vt 0.73124999 0.00000000
vt 0.21875000 0.65625000
vt 0.21875000 0.68750000
vt 0.28125000 0.65625000
vt 0.21875000 0.68750000
vt 0.28125000 0.68750000
vt 0.28125000 0.65625000
vt 0.50000000 0.18750000
vt 0.50000000 0.81250000
vt 0.93750000 0.18750000
vt 0.50000000 0.81250000
vt 0.93750000 0.81250000
vt 0.93750000 0.18750000
vt 0.00000000 0.00000000
vt 0.00000000 0.06250000
vt 0.43750000 0.00000000
vt 0.00000000 0.06250000
vt 0.43750000 0.06250000
vt 0.43750000 0.00000000
vt 0.00000000 0.00000000
vt 0.00000000 0.09375000
vt 0.43750000 0.00000000
vt 0.00000000 0.09375000
vt 0.43750000 0.09375000
vt 0.43750000 0.00000000
f 169/169 170/170 171/171
f 172/172 173/173 174/174

o GLTF_13
usemtl texture.png
v 0.31874999 0.06250000 0.35624999
v 0.31874999 0.00000000 0.35624999
v 0.31874999 0.06250000 -0.37500000
v 0.31874999 0.00000000 0.35624999
v 0.31874999 0.00000000 -0.37500000
v 0.31874999 0.06250000 -0.37500000
v -0.25000000 0.06250000 -0.37500000
v -0.25000000 0.00000000 -0.37500000
v -0.25000000 0.06250000 0.35624999
v -0.25000000 0.00000000 -0.37500000
v -0.25000000 0.00000000 0.35624999
v -0.25000000 0.06250000 0.35624999
v -0.25000000 0.06250000 -0.37500000
v -0.25000000 0.06250000 0.35624999
v 0.31874999 0.06250000 -0.37500000
v -0.25000000 0.06250000 0.35624999
v 0.31874999 0.06250000 0.35624999
v 0.31874999 0.06250000 -0.37500000
v -0.25000000 0.00000000 0.35624999
v -0.25000000 0.00000000 -0.37500000
v 0.31874999 0.00000000 0.35624999
v -0.25000000 0.00000000 -0.37500000
v 0.31874999 0.00000000 -0.37500000
v 0.31874999 0.00000000 0.35624999
v -0.25000000 0.06250000 0.35624999
v -0.25000000 0.00000000 0.35624999
v 0.31874999 0.06250000 0.35624999
v -0.25000000 0.00000000 0.35624999
v 0.31874999 0.00000000 0.35624999
v 0.31874999 0.06250000 0.35624999
v 0.31874999 0.06250000 -0.37500000
v 0.31874999 0.00000000 -0.37500000
v -0.25000000 0.06250000 -0.37500000
v 0.31874999 0.00000000 -0.37500000
v -0.25000000 0.00000000 -0.37500000
v -0.25000000 0.06250000 -0.37500000
vt 0.00000000 0.00000000
vt 0.00000000 0.06250000
vt 0.73124999 0.00000000
vt 0.00000000 0.06250000
vt 0.73124999 0.06250000
vt 0.73124999 0.00000000
vt 0.00000000 0.00000000
vt 0.00000000 0.06250000
vt 0.73124999 0.00000000
vt 0.00000000 0.06250000
vt 0.73124999 0.06250000
vt 0.73124999 0.00000000
vt 0.21875000 0.65625000
vt 0.21875000 0.68750000
vt 0.28125000 0.65625000
vt 0.21875000 0.68750000
vt 0.28125000 0.68750000
vt 0.28125000 0.65625000
vt 0.50000000 0.18750000
vt 0.50000000 0.81250000
vt 0.93750000 0.18750000
vt 0.50000000 0.81250000
vt 0.93750000 0.81250000
vt 0.93750000 0.18750000
vt 0.00000000 0.00000000
vt 0.00000000 0.06250000
vt 0.43750000 0.00000000
vt 0.00000000 0.06250000
vt 0.43750000 0.06250000
vt 0.43750000 0.00000000
vt 0.00000000 0.00000000
vt 0.00000000 0.09375000
vt 0.43750000 0.00000000
vt 0.00000000 0.09375000
vt 0.43750000 0.09375000
vt 0.43750000 0.00000000
f 211/211 212/212 213/213
f 214/214 215/215 216/216

o GLTF_7
usemtl texture.png
v 0.35624999 0.12500000 0.35624999
v 0.35624999 0.00000000 0.35624999
v 0.35624999 0.12500000 -0.37500000
v 0.35624999 0.00000000 0.35624999
v 0.35624999 0.00000000 -0.37500000
v 0.35624999 0.12500000 -0.37500000
v 0.31874999 0.12500000 -0.37500000
v 0.31874999 0.00000000 -0.37500000
v 0.31874999 0.12500000 0.35624999
v 0.31874999 0.00000000 -0.37500000
v 0.31874999 0.00000000 0.35624999
v 0.31874999 0.12500000 0.35624999
v 0.31874999 0.12500000 -0.37500000
v 0.31874999 0.12500000 0.35624999
v 0.35624999 0.12500000 -0.37500000
v 0.31874999 0.12500000 0.35624999
v 0.35624999 0.12500000 0.35624999
v 0.35624999 0.12500000 -0.37500000
v 0.31874999 0.00000000 0.35624999
v 0.31874999 0.00000000 -0.37500000
v 0.35624999 0.00000000 0.35624999
v 0.31874999 0.00000000 -0.37500000
v 0.35624999 0.00000000 -0.37500000
v 0.35624999 0.00000000 0.35624999
v 0.31874999 0.12500000 0.35624999
v 0.31874999 0.00000000 0.35624999
v 0.35624999 0.12500000 0.35624999
v 0.31874999 0.00000000 0.35624999
v 0.35624999 0.00000000 0.35624999
v 0.35624999 0.12500000 0.35624999
v 0.35624999 0.12500000 -0.37500000
v 0.35624999 0.00000000 -0.37500000
v 0.31874999 0.12500000 -0.37500000
v 0.35624999 0.00000000 -0.37500000
v 0.31874999 0.00000000 -0.37500000
v 0.31874999 0.12500000 -0.37500000
vt 0.00000000 0.00000000
vt 0.00000000 0.62500000
vt 0.12500000 0.00000000
vt 0.00000000 0.62500000
vt 0.12500000 0.62500000
vt 0.12500000 0.00000000
vt 0.00000000 0.00000000
vt 0.00000000 0.18750000
vt 0.73124999 0.00000000
vt 0.00000000 0.18750000
vt 0.73124999 0.18750000
vt 0.73124999 0.00000000
vt 0.37500000 0.00000000
vt 0.37500000 0.59375000
vt 0.43750000 0.00000000
vt 0.37500000 0.59375000
vt 0.43750000 0.59375000
vt 0.43750000 0.00000000
vt 0.00000000 0.00000000
vt 0.00000000 0.59375000
vt 0.06250000 0.00000000
vt 0.00000000 0.59375000
vt 0.06250000 0.59375000
vt 0.06250000 0.00000000
vt 0.00000000 0.00000000
vt 0.00000000 0.18750000
vt 0.06250000 0.00000000
vt 0.00000000 0.18750000
vt 0.06250000 0.18750000
vt 0.06250000 0.00000000
vt 0.00000000 0.00000000
vt 0.00000000 0.18750000
vt 0.06250000 0.00000000
vt 0.00000000 0.18750000
vt 0.06250000 0.18750000
vt 0.06250000 0.00000000
f 217/217 218/218 219/219
f 220/220 221/221 222/222
f 223/223 224/224 225/225
f 226/226 227/227 228/228
f 229/229 230/230 231/231
f 232/232 233/233 234/234
f 235/235 236/236 237/237
f 238/238 239/239 240/240
f 241/241 242/242 243/243
f 244/244 245/245 246/246
f 247/247 248/248 249/249
f 250/250 251/251 252/252

o GLTF_6
usemtl texture.png
v 0.36150725 0.18795780 0.35624999
v 0.35606001 0.12569564 0.35624999
v 0.36150725 0.18795780 -0.37500000
v 0.35606001 0.12569564 0.35624999
v 0.35606001 0.12569564 -0.37500000
v 0.36150725 0.18795780 -0.37500000
v -0.24243578 0.24079597 -0.37500000
v -0.24788301 0.17853380 -0.37500000
v -0.24243578 0.24079597 0.35624999
v -0.24788301 0.17853380 -0.37500000
v -0.24788301 0.17853380 0.35624999
v -0.24243578 0.24079597 0.35624999
v -0.24243578 0.24079597 -0.37500000
v -0.24243578 0.24079597 0.35624999
v 0.36150725 0.18795780 -0.37500000
v -0.24243578 0.24079597 0.35624999
v 0.36150725 0.18795780 0.35624999
v 0.36150725 0.18795780 -0.37500000
v -0.24788301 0.17853380 0.35624999
v -0.24788301 0.17853380 -0.37500000
v 0.35606001 0.12569564 0.35624999
v -0.24788301 0.17853380 -0.37500000
v 0.35606001 0.12569564 -0.37500000
v 0.35606001 0.12569564 0.35624999
v -0.24243578 0.24079597 0.35624999
v -0.24788301 0.17853380 0.35624999
v 0.36150725 0.18795780 0.35624999
v -0.24788301 0.17853380 0.35624999
v 0.35606001 0.12569564 0.35624999
v 0.36150725 0.18795780 0.35624999
v 0.36150725 0.18795780 -0.37500000
v 0.35606001 0.12569564 -0.37500000
v -0.24243578 0.24079597 -0.37500000
v 0.35606001 0.12569564 -0.37500000
v -0.24788301 0.17853380 -0.37500000
v -0.24243578 0.24079597 -0.37500000
vt 0.06250000 0.00000000
vt 0.06250000 0.62500000
vt 0.09375000 0.00000000
vt 0.06250000 0.62500000
vt 0.09375000 0.62500000
vt 0.09375000 0.00000000
vt 0.00000000 0.65625000
vt 0.00000000 0.71875000
vt 0.71875000 0.65625000
vt 0.00000000 0.71875000
vt 0.71875000 0.71875000
vt 0.71875000 0.65625000
vt 0.03125000 0.00000000
vt 0.03125000 0.62500000
vt 0.46875000 0.00000000
vt 0.03125000 0.62500000
vt 0.46875000 0.62500000
vt 0.46875000 0.00000000
vt 0.00000000 0.00000000
vt 0.00000000 0.15625000
vt 0.43750000 0.00000000
vt 0.00000000 0.15625000
vt 0.43750000 0.15625000
vt 0.43750000 0.00000000
vt 0.00000000 0.00000000
vt 0.00000000 0.06250000
vt 0.43750000 0.00000000
vt 0.00000000 0.06250000
vt 0.43750000 0.06250000
vt 0.43750000 0.00000000
vt 0.00000000 0.00000000
vt 0.00000000 0.09375000
vt 0.43750000 0.00000000
vt 0.00000000 0.09375000
vt 0.43750000 0.09375000
vt 0.43750000 0.00000000
f 253/253 254/254 255/255
f 256/256 257/257 258/258
f 259/259 260/260 261/261
f 262/262 263/263 264/264
f 265/265 266/266 267/267
f 268/268 269/269 270/270
f 271/271 272/272 273/273
f 274/274 275/275 276/276
f 277/277 278/278 279/279
f 280/280 281/281 282/282
f 283/283 284/284 285/285
f 286/286 287/287 288/288

o GLTF
usemtl material_1
v 0.31874999 0.13124999 0.35624999
v 0.31874999 0.06250000 0.35624999
v 0.31874999 0.13124999 -0.35937500
v 0.31874999 0.06250000 0.35624999
v 0.31874999 0.06250000 -0.35937500
v 0.31874999 0.13124999 -0.35937500
v -0.20937499 0.13124999 -0.35937500
v -0.20937499 0.06250000 -0.35937500
v -0.20937499 0.13124999 0.35624999
v -0.20937499 0.06250000 -0.35937500
v -0.20937499 0.06250000 0.35624999
v -0.20937499 0.13124999 0.35624999
v -0.20937499 0.13124999 -0.35937500
v -0.20937499 0.13124999 0.35624999
v 0.31874999 0.13124999 -0.35937500
v -0.20937499 0.13124999 0.35624999
v 0.31874999 0.13124999 0.35624999
v 0.31874999 0.13124999 -0.35937500
v -0.20937499 0.06250000 0.35624999
v -0.20937499 0.06250000 -0.35937500
v 0.31874999 0.06250000 0.35624999
v -0.20937499 0.06250000 -0.35937500
v 0.31874999 0.06250000 -0.35937500
v 0.31874999 0.06250000 0.35624999
v -0.20937499 0.13124999 0.35624999
v -0.20937499 0.06250000 0.35624999
v 0.31874999 0.13124999 0.35624999
v -0.20937499 0.06250000 0.35624999
v 0.31874999 0.06250000 0.35624999
v 0.31874999 0.13124999 0.35624999
v 0.31874999 0.13124999 -0.35937500
v 0.31874999 0.06250000 -0.35937500
v -0.20937499 0.13124999 -0.35937500
v 0.31874999 0.06250000 -0.35937500
v -0.20937499 0.06250000 -0.35937500
v -0.20937499 0.13124999 -0.35937500
vt 0.00000000 0.00000000
vt 0.00000000 0.06250000
vt 0.73124999 0.00000000
vt 0.00000000 0.06250000
vt 0.73124999 0.06250000
vt 0.73124999 0.00000000
vt 0.00000000 0.00000000
vt 0.00000000 0.09375000
vt 0.59375000 0.00000000
vt 0.00000000 0.09375000
vt 0.59375000 0.09375000
vt 0.59375000 0.00000000
vt 0.00000000 0.18750000
vt 0.00000000 0.96875000
vt 0.50000000 0.18750000
vt 0.00000000 0.96875000
vt 0.50000000 0.96875000
vt 0.50000000 0.18750000
vt 0.00000000 0.00000000
vt 0.00000000 0.73124999
vt 0.60624999 0.00000000
vt 0.00000000 0.73124999
vt 0.60624999 0.73124999
vt 0.60624999 0.00000000
vt 0.00000000 0.00000000
vt 0.00000000 0.06250000
vt 0.60624999 0.00000000
vt 0.00000000 0.06250000
vt 0.60624999 0.06250000
vt 0.60624999 0.00000000
vt 0.03125000 0.00000000
vt 0.03125000 0.06250000
vt 0.59375000 0.00000000
vt 0.03125000 0.06250000
vt 0.59375000 0.06250000
vt 0.59375000 0.00000000
f 289/289 290/290 291/291
f 292/292 293/293 294/294

o GLTF_1
usemtl hoja.png
v 0.31874999 0.13124999 0.35624999
v 0.31874999 0.06250000 0.35624999
v 0.31874999 0.13124999 -0.35937500
v 0.31874999 0.06250000 0.35624999
v 0.31874999 0.06250000 -0.35937500
v 0.31874999 0.13124999 -0.35937500
v -0.20937499 0.13124999 -0.35937500
v -0.20937499 0.06250000 -0.35937500
v -0.20937499 0.13124999 0.35624999
v -0.20937499 0.06250000 -0.35937500
v -0.20937499 0.06250000 0.35624999
v -0.20937499 0.13124999 0.35624999
v -0.20937499 0.13124999 -0.35937500
v -0.20937499 0.13124999 0.35624999
v 0.31874999 0.13124999 -0.35937500
v -0.20937499 0.13124999 0.35624999
v 0.31874999 0.13124999 0.35624999
v 0.31874999 0.13124999 -0.35937500
v -0.20937499 0.06250000 0.35624999
v -0.20937499 0.06250000 -0.35937500
v 0.31874999 0.06250000 0.35624999
v -0.20937499 0.06250000 -0.35937500
v 0.31874999 0.06250000 -0.35937500
v 0.31874999 0.06250000 0.35624999
v -0.20937499 0.13124999 0.35624999
v -0.20937499 0.06250000 0.35624999
v 0.31874999 0.13124999 0.35624999
v -0.20937499 0.06250000 0.35624999
v 0.31874999 0.06250000 0.35624999
v 0.31874999 0.13124999 0.35624999
v 0.31874999 0.13124999 -0.35937500
v 0.31874999 0.06250000 -0.35937500
v -0.20937499 0.13124999 -0.35937500
v 0.31874999 0.06250000 -0.35937500
v -0.20937499 0.06250000 -0.35937500
v -0.20937499 0.13124999 -0.35937500
vt 0.00000000 0.00000000
vt 0.00000000 0.06250000
vt 0.73124999 0.00000000
vt 0.00000000 0.06250000
vt 0.73124999 0.06250000
vt 0.73124999 0.00000000
vt 0.00000000 0.00000000
vt 0.00000000 0.09375000
vt 0.59375000 0.00000000
vt 0.00000000 0.09375000
vt 0.59375000 0.09375000
vt 0.59375000 0.00000000
vt 0.00000000 0.18750000
vt 0.00000000 0.96875000
vt 0.50000000 0.18750000
vt 0.00000000 0.96875000
vt 0.50000000 0.96875000
vt 0.50000000 0.18750000
vt 0.00000000 0.00000000
vt 0.00000000 0.73124999
vt 0.60624999 0.00000000
vt 0.00000000 0.73124999
vt 0.60624999 0.73124999
vt 0.60624999 0.00000000
vt 0.00000000 0.00000000
vt 0.00000000 0.06250000
vt 0.60624999 0.00000000
vt 0.00000000 0.06250000
vt 0.60624999 0.06250000
vt 0.60624999 0.00000000
vt 0.03125000 0.00000000
vt 0.03125000 0.06250000
vt 0.59375000 0.00000000
vt 0.03125000 0.06250000
vt 0.59375000 0.06250000
vt 0.59375000 0.00000000
f 331/331 332/332 333/333
f 334/334 335/335 336/336

o GLTF_2
usemtl hoja.png
v 0.31874999 0.13124999 0.35624999
v 0.31874999 0.06250000 0.35624999
v 0.31874999 0.13124999 -0.35937500
v 0.31874999 0.06250000 0.35624999
v 0.31874999 0.06250000 -0.35937500
v 0.31874999 0.13124999 -0.35937500
v -0.20937499 0.13124999 -0.35937500
v -0.20937499 0.06250000 -0.35937500
v -0.20937499 0.13124999 0.35624999
v -0.20937499 0.06250000 -0.35937500
v -0.20937499 0.06250000 0.35624999
v -0.20937499 0.13124999 0.35624999
v -0.20937499 0.13124999 -0.35937500
v -0.20937499 0.13124999 0.35624999
v 0.31874999 0.13124999 -0.35937500
v -0.20937499 0.13124999 0.35624999
v 0.31874999 0.13124999 0.35624999
v 0.31874999 0.13124999 -0.35937500
v -0.20937499 0.06250000 0.35624999
v -0.20937499 0.06250000 -0.35937500
v 0.31874999 0.06250000 0.35624999
v -0.20937499 0.06250000 -0.35937500
v 0.31874999 0.06250000 -0.35937500
v 0.31874999 0.06250000 0.35624999
v -0.20937499 0.13124999 0.35624999
v -0.20937499 0.06250000 0.35624999
v 0.31874999 0.13124999 0.35624999
v -0.20937499 0.06250000 0.35624999
v 0.31874999 0.06250000 0.35624999
v 0.31874999 0.13124999 0.35624999
v 0.31874999 0.13124999 -0.35937500
v 0.31874999 0.06250000 -0.35937500
v -0.20937499 0.13124999 -0.35937500
v 0.31874999 0.06250000 -0.35937500
v -0.20937499 0.06250000 -0.35937500
v -0.20937499 0.13124999 -0.35937500
vt 0.00000000 0.00000000
vt 0.00000000 0.06250000
vt 0.73124999 0.00000000
vt 0.00000000 0.06250000
vt 0.73124999 0.06250000
vt 0.73124999 0.00000000
vt 0.00000000 0.00000000
vt 0.00000000 0.09375000
vt 0.59375000 0.00000000
vt 0.00000000 0.09375000
vt 0.59375000 0.09375000
vt 0.59375000 0.00000000
vt 0.00000000 0.18750000
vt 0.00000000 0.96875000
vt 0.50000000 0.18750000
vt 0.00000000 0.96875000
vt 0.50000000 0.96875000
vt 0.50000000 0.18750000
vt 0.00000000 0.00000000
vt 0.00000000 0.73124999
vt 0.60624999 0.00000000
vt 0.00000000 0.73124999
vt 0.60624999 0.73124999
vt 0.60624999 0.00000000
vt 0.00000000 0.00000000
vt 0.00000000 0.06250000
vt 0.60624999 0.00000000
vt 0.00000000 0.06250000
vt 0.60624999 0.06250000
vt 0.60624999 0.00000000
vt 0.03125000 0.00000000
vt 0.03125000 0.06250000
vt 0.59375000 0.00000000
vt 0.03125000 0.06250000
vt 0.59375000 0.06250000
vt 0.59375000 0.00000000
f 373/373 374/374 375/375
f 376/376 377/377 378/378

o GLTF_3
usemtl material_1
v 0.31874999 0.13124999 0.35624999
v 0.31874999 0.06250000 0.35624999
v 0.31874999 0.13124999 -0.35937500
v 0.31874999 0.06250000 0.35624999
v 0.31874999 0.06250000 -0.35937500
v 0.31874999 0.13124999 -0.35937500
v -0.20937499 0.13124999 -0.35937500
v -0.20937499 0.06250000 -0.35937500
v -0.20937499 0.13124999 0.35624999
v -0.20937499 0.06250000 -0.35937500
v -0.20937499 0.06250000 0.35624999
v -0.20937499 0.13124999 0.35624999
v -0.20937499 0.13124999 -0.35937500
v -0.20937499 0.13124999 0.35624999
v 0.31874999 0.13124999 -0.35937500
v -0.20937499 0.13124999 0.35624999
v 0.31874999 0.13124999 0.35624999
v 0.31874999 0.13124999 -0.35937500
v -0.20937499 0.06250000 0.35624999
v -0.20937499 0.06250000 -0.35937500
v 0.31874999 0.06250000 0.35624999
v -0.20937499 0.06250000 -0.35937500
v 0.31874999 0.06250000 -0.35937500
v 0.31874999 0.06250000 0.35624999
v -0.20937499 0.13124999 0.35624999
v -0.20937499 0.06250000 0.35624999
v 0.31874999 0.13124999 0.35624999
v -0.20937499 0.06250000 0.35624999
v 0.31874999 0.06250000 0.35624999
v 0.31874999 0.13124999 0.35624999
v 0.31874999 0.13124999 -0.35937500
v 0.31874999 0.06250000 -0.35937500
v -0.20937499 0.13124999 -0.35937500
v 0.31874999 0.06250000 -0.35937500
v -0.20937499 0.06250000 -0.35937500
v -0.20937499 0.13124999 -0.35937500
vt 0.00000000 0.00000000
vt 0.00000000 0.06250000
vt 0.73124999 0.00000000
vt 0.00000000 0.06250000
vt 0.73124999 0.06250000
vt 0.73124999 0.00000000
vt 0.00000000 0.00000000
vt 0.00000000 0.09375000
vt 0.59375000 0.00000000
vt 0.00000000 0.09375000
vt 0.59375000 0.09375000
vt 0.59375000 0.00000000
vt 0.00000000 0.18750000
vt 0.00000000 0.96875000
vt 0.50000000 0.18750000
vt 0.00000000 0.96875000
vt 0.50000000 0.96875000
vt 0.50000000 0.18750000
vt 0.00000000 0.00000000
vt 0.00000000 0.73124999
vt 0.60624999 0.00000000
vt 0.00000000 0.73124999
vt 0.60624999 0.73124999
vt 0.60624999 0.00000000
vt 0.00000000 0.00000000
vt 0.00000000 0.06250000
vt 0.60624999 0.00000000
vt 0.00000000 0.06250000
vt 0.60624999 0.06250000
vt 0.60624999 0.00000000
vt 0.03125000 0.00000000
vt 0.03125000 0.06250000
vt 0.59375000 0.00000000
vt 0.03125000 0.06250000
vt 0.59375000 0.06250000
vt 0.59375000 0.00000000
f 415/415 416/416 417/417
f 418/418 419/419 420/420

o GLTF_4
usemtl material_1
v 0.31874999 0.13124999 0.35624999
v 0.31874999 0.06250000 0.35624999
v 0.31874999 0.13124999 -0.35937500
v 0.31874999 0.06250000 0.35624999
v 0.31874999 0.06250000 -0.35937500
v 0.31874999 0.13124999 -0.35937500
v -0.20937499 0.13124999 -0.35937500
v -0.20937499 0.06250000 -0.35937500
v -0.20937499 0.13124999 0.35624999
v -0.20937499 0.06250000 -0.35937500
v -0.20937499 0.06250000 0.35624999
v -0.20937499 0.13124999 0.35624999
v -0.20937499 0.13124999 -0.35937500
v -0.20937499 0.13124999 0.35624999
v 0.31874999 0.13124999 -0.35937500
v -0.20937499 0.13124999 0.35624999
v 0.31874999 0.13124999 0.35624999
v 0.31874999 0.13124999 -0.35937500
v -0.20937499 0.06250000 0.35624999
v -0.20937499 0.06250000 -0.35937500
v 0.31874999 0.06250000 0.35624999
v -0.20937499 0.06250000 -0.35937500
v 0.31874999 0.06250000 -0.35937500
v 0.31874999 0.06250000 0.35624999
v -0.20937499 0.13124999 0.35624999
v -0.20937499 0.06250000 0.35624999
v 0.31874999 0.13124999 0.35624999
v -0.20937499 0.06250000 0.35624999
v 0.31874999 0.06250000 0.35624999
v 0.31874999 0.13124999 0.35624999
v 0.31874999 0.13124999 -0.35937500
v 0.31874999 0.06250000 -0.35937500
v -0.20937499 0.13124999 -0.35937500
v 0.31874999 0.06250000 -0.35937500
v -0.20937499 0.06250000 -0.35937500
v -0.20937499 0.13124999 -0.35937500
vt 0.00000000 0.00000000
vt 0.00000000 0.06250000
vt 0.73124999 0.00000000
vt 0.00000000 0.06250000
vt 0.73124999 0.06250000
vt 0.73124999 0.00000000
vt 0.00000000 0.00000000
vt 0.00000000 0.09375000
vt 0.59375000 0.00000000
vt 0.00000000 0.09375000
vt 0.59375000 0.09375000
vt 0.59375000 0.00000000
vt 0.00000000 0.18750000
vt 0.00000000 0.96875000
vt 0.50000000 0.18750000
vt 0.00000000 0.96875000
vt 0.50000000 0.96875000
vt 0.50000000 0.18750000
vt 0.00000000 0.00000000
vt 0.00000000 0.73124999
vt 0.60624999 0.00000000
vt 0.00000000 0.73124999
vt 0.60624999 0.73124999
vt 0.60624999 0.00000000
vt 0.00000000 0.00000000
vt 0.00000000 0.06250000
vt 0.60624999 0.00000000
vt 0.00000000 0.06250000
vt 0.60624999 0.06250000
vt 0.60624999 0.00000000
vt 0.03125000 0.00000000
vt 0.03125000 0.06250000
vt 0.59375000 0.00000000
vt 0.03125000 0.06250000
vt 0.59375000 0.06250000
vt 0.59375000 0.00000000
f 457/457 458/458 459/459
f 460/460 461/461 462/462

o GLTF_5
usemtl hoja.png
v 0.31874999 0.13124999 0.35624999
v 0.31874999 0.06250000 0.35624999
v 0.31874999 0.13124999 -0.35937500
v 0.31874999 0.06250000 0.35624999
v 0.31874999 0.06250000 -0.35937500
v 0.31874999 0.13124999 -0.35937500
v -0.20937499 0.13124999 -0.35937500
v -0.20937499 0.06250000 -0.35937500
v -0.20937499 0.13124999 0.35624999
v -0.20937499 0.06250000 -0.35937500
v -0.20937499 0.06250000 0.35624999
v -0.20937499 0.13124999 0.35624999
v -0.20937499 0.13124999 -0.35937500
v -0.20937499 0.13124999 0.35624999
v 0.31874999 0.13124999 -0.35937500
v -0.20937499 0.13124999 0.35624999
v 0.31874999 0.13124999 0.35624999
v 0.31874999 0.13124999 -0.35937500
v -0.20937499 0.06250000 0.35624999
v -0.20937499 0.06250000 -0.35937500
v 0.31874999 0.06250000 0.35624999
v -0.20937499 0.06250000 -0.35937500
v 0.31874999 0.06250000 -0.35937500
v 0.31874999 0.06250000 0.35624999
v -0.20937499 0.13124999 0.35624999
v -0.20937499 0.06250000 0.35624999
v 0.31874999 0.13124999 0.35624999
v -0.20937499 0.06250000 0.35624999
v 0.31874999 0.06250000 0.35624999
v 0.31874999 0.13124999 0.35624999
v 0.31874999 0.13124999 -0.35937500
v 0.31874999 0.06250000 -0.35937500
v -0.20937499 0.13124999 -0.35937500
v 0.31874999 0.06250000 -0.35937500
v -0.20937499 0.06250000 -0.35937500
v -0.20937499 0.13124999 -0.35937500
vt 0.00000000 0.00000000
vt 0.00000000 0.06250000
vt 0.73124999 0.00000000
vt 0.00000000 0.06250000
vt 0.73124999 0.06250000
vt 0.73124999 0.00000000
vt 0.00000000 0.00000000
vt 0.00000000 0.09375000
vt 0.59375000 0.00000000
vt 0.00000000 0.09375000
vt 0.59375000 0.09375000
vt 0.59375000 0.00000000
vt 0.00000000 0.18750000
vt 0.00000000 0.96875000
vt 0.50000000 0.18750000
vt 0.00000000 0.96875000
vt 0.50000000 0.96875000
vt 0.50000000 0.18750000
vt 0.00000000 0.00000000
vt 0.00000000 0.73124999
vt 0.60624999 0.00000000
vt 0.00000000 0.73124999
vt 0.60624999 0.73124999
vt 0.60624999 0.00000000
vt 0.00000000 0.00000000
vt 0.00000000 0.06250000
vt 0.60624999 0.00000000
vt 0.00000000 0.06250000
vt 0.60624999 0.06250000
vt 0.60624999 0.00000000
vt 0.03125000 0.00000000
vt 0.03125000 0.06250000
vt 0.59375000 0.00000000
vt 0.03125000 0.06250000
vt 0.59375000 0.06250000
vt 0.59375000 0.00000000
f 499/499 500/500 501/501
f 502/502 503/503 504/504

